
            
            <svg version="1.1" xmlns="http://www.w3.org/2000/svg" viewBox="0 0 550 342"><g transform="translate(60,30)"><g class="x axis" transform="translate(0, 292)"><g class="tick major" style="opacity: 1;" transform="translate(42.85714285714286,0)"><line y2="6" x2="0" style="stroke: lightgrey;"></line><text y="9" x="0" dy=".71em" style="text-anchor: middle; font-size: 12px;">26 Jun 2020</text></g><g class="tick major" style="opacity: 1;" transform="translate(145.71428571428572,0)"><line y2="6" x2="0" style="stroke: lightgrey;"></line><text y="9" x="0" dy=".71em" style="text-anchor: middle; font-size: 12px;">27 Jun 2020</text></g><g class="tick major" style="opacity: 1;" transform="translate(248.57142857142858,0)"><line y2="6" x2="0" style="stroke: lightgrey;"></line><text y="9" x="0" dy=".71em" style="text-anchor: middle; font-size: 12px;">28 Jun 2020</text></g><g class="tick major" style="opacity: 1;" transform="translate(351.42857142857144,0)"><line y2="6" x2="0" style="stroke: lightgrey;"></line><text y="9" x="0" dy=".71em" style="text-anchor: middle; font-size: 12px;">29 Jun 2020</text></g><g class="tick major" style="opacity: 1;" transform="translate(454.28571428571433,0)"><line y2="6" x2="0" style="stroke: lightgrey;"></line><text y="9" x="0" dy=".71em" style="text-anchor: middle; font-size: 12px;">30 Jun 2020</text></g><path class="domain" d="M0,6V0H480V6" style="display: none;"></path></g><g class="y axis"><g class="tick major" style="opacity: 1;" transform="translate(0,292)"><line x2="484" y2="0" style="stroke: lightgrey;"></line><text x="-3" y="0" dy=".32em" style="text-anchor: end; font-size: 12px;">0.0000%</text></g><g class="tick major" style="opacity: 1;" transform="translate(0,214.84859088011)"><line x2="484" y2="0" style="stroke: lightgrey;"></line><text x="-3" y="0" dy=".32em" style="text-anchor: end; font-size: 12px;">0.0100%</text></g><g class="tick major" style="opacity: 1;" transform="translate(0,137.69718176022)"><line x2="484" y2="0" style="stroke: lightgrey;"></line><text x="-3" y="0" dy=".32em" style="text-anchor: end; font-size: 12px;">0.0200%</text></g><g class="tick major" style="opacity: 1;" transform="translate(0,60.54577264033003)"><line x2="484" y2="0" style="stroke: lightgrey;"></line><text x="-3" y="0" dy=".32em" style="text-anchor: end; font-size: 12px;">0.0300%</text></g><path class="domain" d="M484,0H0V292H484" style="display: none;"></path></g><g class="line" style="stroke-width: 2px; stroke: rgb(175, 216, 248);"><path d="M0,292L17.142857142857146,292L34.28571428571429,292L51.42857142857143,292L68.57142857142858,292L85.71428571428572,292L102.85714285714286,292L120,291.79191835182996L137.14285714285717,291.79191835182996L154.2857142857143,291.79191835182996L171.42857142857144,247.26244564344256L188.57142857142858,232.2805669752001L205.71428571428572,234.1533018087304L222.85714285714286,233.84117933647534L240,253.92105838488368L257.14285714285717,261.41199771900494L274.28571428571433,262.34836513577005L291.42857142857144,262.34836513577005L308.5714285714286,248.0947722361227L325.7142857142857,239.25130218889623L342.8571428571429,232.3846077992851L360.00000000000006,215.21787182525725L377.14285714285717,198.6753807957395L394.28571428571433,199.1955849161646L411.42857142857144,199.09154409207957L428.5714285714286,191.28848228570328L445.7142857142857,188.06321673906774L462.8571428571429,188.8955433317479L480,193.05717629514857" style="fill: none;"></path><circle class="dot" cx="0" cy="292" r="3" style="fill: white;" data-original-title="" title=""></circle><circle class="dot" cx="17.142857142857146" cy="292" r="3" style="fill: white;" data-original-title="" title=""></circle><circle class="dot" cx="34.28571428571429" cy="292" r="3" style="fill: white;" data-original-title="" title=""></circle><circle class="dot" cx="51.42857142857143" cy="292" r="3" style="fill: white;" data-original-title="" title=""></circle><circle class="dot" cx="68.57142857142858" cy="292" r="3" style="fill: white;" data-original-title="" title=""></circle><circle class="dot" cx="85.71428571428572" cy="292" r="3" style="fill: white;" data-original-title="" title=""></circle><circle class="dot" cx="102.85714285714286" cy="292" r="3" style="fill: white;" data-original-title="" title=""></circle><circle class="dot" cx="120" cy="291.79191835182996" r="3" style="fill: white;" data-original-title="" title=""></circle><circle class="dot" cx="137.14285714285717" cy="291.79191835182996" r="3" style="fill: white;" data-original-title="" title=""></circle><circle class="dot" cx="154.2857142857143" cy="291.79191835182996" r="3" style="fill: white;" data-original-title="" title=""></circle><circle class="dot" cx="171.42857142857144" cy="247.26244564344256" r="3" style="fill: white;" data-original-title="" title=""></circle><circle class="dot" cx="188.57142857142858" cy="232.2805669752001" r="3" style="fill: white;" data-original-title="" title=""></circle><circle class="dot" cx="205.71428571428572" cy="234.1533018087304" r="3" style="fill: white;" data-original-title="" title=""></circle><circle class="dot" cx="222.85714285714286" cy="233.84117933647534" r="3" style="fill: white;" data-original-title="" title=""></circle><circle class="dot" cx="240" cy="253.92105838488368" r="3" style="fill: white;" data-original-title="" title=""></circle><circle class="dot" cx="257.14285714285717" cy="261.41199771900494" r="3" style="fill: white;" data-original-title="" title=""></circle><circle class="dot" cx="274.28571428571433" cy="262.34836513577005" r="3" style="fill: white;" data-original-title="" title=""></circle><circle class="dot" cx="291.42857142857144" cy="262.34836513577005" r="3" style="fill: white;" data-original-title="" title=""></circle><circle class="dot" cx="308.5714285714286" cy="248.0947722361227" r="3" style="fill: white;" data-original-title="" title=""></circle><circle class="dot" cx="325.7142857142857" cy="239.25130218889623" r="3" style="fill: white;" data-original-title="" title=""></circle><circle class="dot" cx="342.8571428571429" cy="232.3846077992851" r="3" style="fill: white;" data-original-title="" title=""></circle><circle class="dot" cx="360.00000000000006" cy="215.21787182525725" r="3" style="fill: white;" data-original-title="" title=""></circle><circle class="dot" cx="377.14285714285717" cy="198.6753807957395" r="3" style="fill: white;" data-original-title="" title=""></circle><circle class="dot" cx="394.28571428571433" cy="199.1955849161646" r="3" style="fill: white;" data-original-title="" title=""></circle><circle class="dot" cx="411.42857142857144" cy="199.09154409207957" r="3" style="fill: white;" data-original-title="" title=""></circle><circle class="dot" cx="428.5714285714286" cy="191.28848228570328" r="3" style="fill: white;" data-original-title="" title=""></circle><circle class="dot" cx="445.7142857142857" cy="188.06321673906774" r="3" style="fill: white;" data-original-title="" title=""></circle><circle class="dot" cx="462.8571428571429" cy="188.8955433317479" r="3" style="fill: white;" data-original-title="" title=""></circle><circle class="dot" cx="480" cy="193.05717629514857" r="3" style="fill: white;" data-original-title="" title=""></circle></g><g class="line" style="stroke-width: 2px; stroke: rgb(237, 194, 64);"><path d="M0,292L17.142857142857146,292L34.28571428571429,292L51.42857142857143,292L68.57142857142858,292L85.71428571428572,292L102.85714285714286,292L120,291.4154154154154L137.14285714285717,291.4154154154154L154.2857142857143,291.4154154154154L171.42857142857144,168.36036036036035L188.57142857142858,126.27027027027029L205.71428571428572,130.94694694694695L222.85714285714286,130.07007007007005L240,186.1901901901902L257.14285714285717,207.52752752752752L274.28571428571433,209.86586586586589L291.42857142857144,209.28128128128128L308.5714285714286,169.5295295295295L325.7142857142857,144.97697697697694L342.8571428571429,125.68568568568568L360.00000000000006,78.04204204204206L377.14285714285717,31.56756756756755L394.28571428571433,32.4444444444444L411.42857142857144,31.275275275275305L428.5714285714286,9.061061061061025L445.7142857142857,0L462.8571428571429,3.21521521521521L480,13.737737737737746" style="fill: none;"></path><circle class="dot" cx="0" cy="292" r="3" style="fill: white;" data-original-title="" title=""></circle><circle class="dot" cx="17.142857142857146" cy="292" r="3" style="fill: white;" data-original-title="" title=""></circle><circle class="dot" cx="34.28571428571429" cy="292" r="3" style="fill: white;" data-original-title="" title=""></circle><circle class="dot" cx="51.42857142857143" cy="292" r="3" style="fill: white;" data-original-title="" title=""></circle><circle class="dot" cx="68.57142857142858" cy="292" r="3" style="fill: white;" data-original-title="" title=""></circle><circle class="dot" cx="85.71428571428572" cy="292" r="3" style="fill: white;" data-original-title="" title=""></circle><circle class="dot" cx="102.85714285714286" cy="292" r="3" style="fill: white;" data-original-title="" title=""></circle><circle class="dot" cx="120" cy="291.4154154154154" r="3" style="fill: white;" data-original-title="" title=""></circle><circle class="dot" cx="137.14285714285717" cy="291.4154154154154" r="3" style="fill: white;" data-original-title="" title=""></circle><circle class="dot" cx="154.2857142857143" cy="291.4154154154154" r="3" style="fill: white;" data-original-title="" title=""></circle><circle class="dot" cx="171.42857142857144" cy="168.36036036036035" r="3" style="fill: white;" data-original-title="" title=""></circle><circle class="dot" cx="188.57142857142858" cy="126.27027027027029" r="3" style="fill: white;" data-original-title="" title=""></circle><circle class="dot" cx="205.71428571428572" cy="130.94694694694695" r="3" style="fill: white;" data-original-title="" title=""></circle><circle class="dot" cx="222.85714285714286" cy="130.07007007007005" r="3" style="fill: white;" data-original-title="" title=""></circle><circle class="dot" cx="240" cy="186.1901901901902" r="3" style="fill: white;" data-original-title="" title=""></circle><circle class="dot" cx="257.14285714285717" cy="207.52752752752752" r="3" style="fill: white;" data-original-title="" title=""></circle><circle class="dot" cx="274.28571428571433" cy="209.86586586586589" r="3" style="fill: white;" data-original-title="" title=""></circle><circle class="dot" cx="291.42857142857144" cy="209.28128128128128" r="3" style="fill: white;" data-original-title="" title=""></circle><circle class="dot" cx="308.5714285714286" cy="169.5295295295295" r="3" style="fill: white;" data-original-title="" title=""></circle><circle class="dot" cx="325.7142857142857" cy="144.97697697697694" r="3" style="fill: white;" data-original-title="" title=""></circle><circle class="dot" cx="342.8571428571429" cy="125.68568568568568" r="3" style="fill: white;" data-original-title="" title=""></circle><circle class="dot" cx="360.00000000000006" cy="78.04204204204206" r="3" style="fill: white;" data-original-title="" title=""></circle><circle class="dot" cx="377.14285714285717" cy="31.56756756756755" r="3" style="fill: white;" data-original-title="" title=""></circle><circle class="dot" cx="394.28571428571433" cy="32.4444444444444" r="3" style="fill: white;" data-original-title="" title=""></circle><circle class="dot" cx="411.42857142857144" cy="31.275275275275305" r="3" style="fill: white;" data-original-title="" title=""></circle><circle class="dot" cx="428.5714285714286" cy="9.061061061061025" r="3" style="fill: white;" data-original-title="" title=""></circle><circle class="dot" cx="445.7142857142857" cy="0" r="3" style="fill: white;" data-original-title="" title=""></circle><circle class="dot" cx="462.8571428571429" cy="3.21521521521521" r="3" style="fill: white;" data-original-title="" title=""></circle><circle class="dot" cx="480" cy="13.737737737737746" r="3" style="fill: white;" data-original-title="" title=""></circle></g><g class="line" style="stroke-width: 2px; stroke: rgb(203, 75, 75);"><path d="M0,292L17.142857142857146,292L34.28571428571429,292L51.42857142857143,292L68.57142857142858,292L85.71428571428572,292L102.85714285714286,292L120,292L137.14285714285717,292L154.2857142857143,292L171.42857142857144,292L188.57142857142858,292L205.71428571428572,292L222.85714285714286,292L240,292L257.14285714285717,292L274.28571428571433,292L291.42857142857144,292L308.5714285714286,292L325.7142857142857,292L342.8571428571429,292L360.00000000000006,292L377.14285714285717,292L394.28571428571433,292L411.42857142857144,292L428.5714285714286,292L445.7142857142857,292L462.8571428571429,292L480,292" style="fill: none;"></path><circle class="dot" cx="0" cy="292" r="3" style="fill: white;" data-original-title="" title=""></circle><circle class="dot" cx="17.142857142857146" cy="292" r="3" style="fill: white;" data-original-title="" title=""></circle><circle class="dot" cx="34.28571428571429" cy="292" r="3" style="fill: white;" data-original-title="" title=""></circle><circle class="dot" cx="51.42857142857143" cy="292" r="3" style="fill: white;" data-original-title="" title=""></circle><circle class="dot" cx="68.57142857142858" cy="292" r="3" style="fill: white;" data-original-title="" title=""></circle><circle class="dot" cx="85.71428571428572" cy="292" r="3" style="fill: white;" data-original-title="" title=""></circle><circle class="dot" cx="102.85714285714286" cy="292" r="3" style="fill: white;" data-original-title="" title=""></circle><circle class="dot" cx="120" cy="292" r="3" style="fill: white;" data-original-title="" title=""></circle><circle class="dot" cx="137.14285714285717" cy="292" r="3" style="fill: white;" data-original-title="" title=""></circle><circle class="dot" cx="154.2857142857143" cy="292" r="3" style="fill: white;" data-original-title="" title=""></circle><circle class="dot" cx="171.42857142857144" cy="292" r="3" style="fill: white;" data-original-title="" title=""></circle><circle class="dot" cx="188.57142857142858" cy="292" r="3" style="fill: white;" data-original-title="" title=""></circle><circle class="dot" cx="205.71428571428572" cy="292" r="3" style="fill: white;" data-original-title="" title=""></circle><circle class="dot" cx="222.85714285714286" cy="292" r="3" style="fill: white;" data-original-title="" title=""></circle><circle class="dot" cx="240" cy="292" r="3" style="fill: white;" data-original-title="" title=""></circle><circle class="dot" cx="257.14285714285717" cy="292" r="3" style="fill: white;" data-original-title="" title=""></circle><circle class="dot" cx="274.28571428571433" cy="292" r="3" style="fill: white;" data-original-title="" title=""></circle><circle class="dot" cx="291.42857142857144" cy="292" r="3" style="fill: white;" data-original-title="" title=""></circle><circle class="dot" cx="308.5714285714286" cy="292" r="3" style="fill: white;" data-original-title="" title=""></circle><circle class="dot" cx="325.7142857142857" cy="292" r="3" style="fill: white;" data-original-title="" title=""></circle><circle class="dot" cx="342.8571428571429" cy="292" r="3" style="fill: white;" data-original-title="" title=""></circle><circle class="dot" cx="360.00000000000006" cy="292" r="3" style="fill: white;" data-original-title="" title=""></circle><circle class="dot" cx="377.14285714285717" cy="292" r="3" style="fill: white;" data-original-title="" title=""></circle><circle class="dot" cx="394.28571428571433" cy="292" r="3" style="fill: white;" data-original-title="" title=""></circle><circle class="dot" cx="411.42857142857144" cy="292" r="3" style="fill: white;" data-original-title="" title=""></circle><circle class="dot" cx="428.5714285714286" cy="292" r="3" style="fill: white;" data-original-title="" title=""></circle><circle class="dot" cx="445.7142857142857" cy="292" r="3" style="fill: white;" data-original-title="" title=""></circle><circle class="dot" cx="462.8571428571429" cy="292" r="3" style="fill: white;" data-original-title="" title=""></circle><circle class="dot" cx="480" cy="292" r="3" style="fill: white;" data-original-title="" title=""></circle></g><g class="line" style="stroke-width: 2px; stroke: rgb(77, 167, 77);"><path d="M0,292L17.142857142857146,292L34.28571428571429,292L51.42857142857143,292L68.57142857142858,292L85.71428571428572,292L102.85714285714286,292L120,292L137.14285714285717,292L154.2857142857143,292L171.42857142857144,292L188.57142857142858,292L205.71428571428572,292L222.85714285714286,292L240,292L257.14285714285717,292L274.28571428571433,292L291.42857142857144,292L308.5714285714286,292L325.7142857142857,292L342.8571428571429,292L360.00000000000006,292L377.14285714285717,292L394.28571428571433,292L411.42857142857144,292L428.5714285714286,292L445.7142857142857,292L462.8571428571429,292L480,292" style="fill: none;"></path><circle class="dot" cx="0" cy="292" r="3" style="fill: white;" data-original-title="" title=""></circle><circle class="dot" cx="17.142857142857146" cy="292" r="3" style="fill: white;" data-original-title="" title=""></circle><circle class="dot" cx="34.28571428571429" cy="292" r="3" style="fill: white;" data-original-title="" title=""></circle><circle class="dot" cx="51.42857142857143" cy="292" r="3" style="fill: white;" data-original-title="" title=""></circle><circle class="dot" cx="68.57142857142858" cy="292" r="3" style="fill: white;" data-original-title="" title=""></circle><circle class="dot" cx="85.71428571428572" cy="292" r="3" style="fill: white;" data-original-title="" title=""></circle><circle class="dot" cx="102.85714285714286" cy="292" r="3" style="fill: white;" data-original-title="" title=""></circle><circle class="dot" cx="120" cy="292" r="3" style="fill: white;" data-original-title="" title=""></circle><circle class="dot" cx="137.14285714285717" cy="292" r="3" style="fill: white;" data-original-title="" title=""></circle><circle class="dot" cx="154.2857142857143" cy="292" r="3" style="fill: white;" data-original-title="" title=""></circle><circle class="dot" cx="171.42857142857144" cy="292" r="3" style="fill: white;" data-original-title="" title=""></circle><circle class="dot" cx="188.57142857142858" cy="292" r="3" style="fill: white;" data-original-title="" title=""></circle><circle class="dot" cx="205.71428571428572" cy="292" r="3" style="fill: white;" data-original-title="" title=""></circle><circle class="dot" cx="222.85714285714286" cy="292" r="3" style="fill: white;" data-original-title="" title=""></circle><circle class="dot" cx="240" cy="292" r="3" style="fill: white;" data-original-title="" title=""></circle><circle class="dot" cx="257.14285714285717" cy="292" r="3" style="fill: white;" data-original-title="" title=""></circle><circle class="dot" cx="274.28571428571433" cy="292" r="3" style="fill: white;" data-original-title="" title=""></circle><circle class="dot" cx="291.42857142857144" cy="292" r="3" style="fill: white;" data-original-title="" title=""></circle><circle class="dot" cx="308.5714285714286" cy="292" r="3" style="fill: white;" data-original-title="" title=""></circle><circle class="dot" cx="325.7142857142857" cy="292" r="3" style="fill: white;" data-original-title="" title=""></circle><circle class="dot" cx="342.8571428571429" cy="292" r="3" style="fill: white;" data-original-title="" title=""></circle><circle class="dot" cx="360.00000000000006" cy="292" r="3" style="fill: white;" data-original-title="" title=""></circle><circle class="dot" cx="377.14285714285717" cy="292" r="3" style="fill: white;" data-original-title="" title=""></circle><circle class="dot" cx="394.28571428571433" cy="292" r="3" style="fill: white;" data-original-title="" title=""></circle><circle class="dot" cx="411.42857142857144" cy="292" r="3" style="fill: white;" data-original-title="" title=""></circle><circle class="dot" cx="428.5714285714286" cy="292" r="3" style="fill: white;" data-original-title="" title=""></circle><circle class="dot" cx="445.7142857142857" cy="292" r="3" style="fill: white;" data-original-title="" title=""></circle><circle class="dot" cx="462.8571428571429" cy="292" r="3" style="fill: white;" data-original-title="" title=""></circle><circle class="dot" cx="480" cy="292" r="3" style="fill: white;" data-original-title="" title=""></circle></g><g class="legend"><g><circle cx="-27" cy="-20" r="3" style="stroke-width: 2px; stroke: rgb(175, 216, 248); fill: white;"></circle><text x="-17" y="-16" style="fill: rgb(175, 216, 248); font-size: 12px;">consensus weight fraction</text></g><g><circle cx="254" cy="-20" r="3" style="stroke-width: 2px; stroke: rgb(237, 194, 64); fill: white;"></circle><text x="264" y="-16" style="fill: rgb(237, 194, 64); font-size: 12px;">middle probability</text></g><g><circle cx="139" cy="-20" r="3" style="stroke-width: 2px; stroke: rgb(203, 75, 75); fill: white;"></circle><text x="149" y="-16" style="fill: rgb(203, 75, 75); font-size: 12px;">guard probability</text></g><g><circle cx="374" cy="-20" r="3" style="stroke-width: 2px; stroke: rgb(77, 167, 77); fill: white;"></circle><text x="384" y="-16" style="fill: rgb(77, 167, 77); font-size: 12px;">exit probability</text></g></g></g></svg>