
            
            <svg version="1.1" xmlns="http://www.w3.org/2000/svg" viewBox="0 0 550 342"><g transform="translate(60,30)"><g class="x axis" transform="translate(0, 292)"><g class="tick major" style="opacity: 1;" transform="translate(63.75,0)"><line y2="6" x2="0" style="stroke: lightgrey;"></line><text y="9" x="0" dy=".71em" style="text-anchor: middle; font-size: 12px;">27 Jun 2020</text></g><g class="tick major" style="opacity: 1;" transform="translate(153.75,0)"><line y2="6" x2="0" style="stroke: lightgrey;"></line><text y="9" x="0" dy=".71em" style="text-anchor: middle; font-size: 12px;">29 Jun 2020</text></g><g class="tick major" style="opacity: 1;" transform="translate(243.75,0)"><line y2="6" x2="0" style="stroke: lightgrey;"></line><text y="9" x="0" dy=".71em" style="text-anchor: middle; font-size: 12px;">01 Jul 2020</text></g><g class="tick major" style="opacity: 1;" transform="translate(333.75,0)"><line y2="6" x2="0" style="stroke: lightgrey;"></line><text y="9" x="0" dy=".71em" style="text-anchor: middle; font-size: 12px;">03 Jul 2020</text></g><g class="tick major" style="opacity: 1;" transform="translate(423.74999999999994,0)"><line y2="6" x2="0" style="stroke: lightgrey;"></line><text y="9" x="0" dy=".71em" style="text-anchor: middle; font-size: 12px;">05 Jul 2020</text></g><path class="domain" d="M0,6V0H480V6" style="display: none;"></path></g><g class="y axis"><g class="tick major" style="opacity: 1;" transform="translate(0,292)"><line x2="484" y2="0" style="stroke: lightgrey;"></line><text x="-3" y="0" dy=".32em" style="text-anchor: end; font-size: 12px;">0.0000%</text></g><g class="tick major" style="opacity: 1;" transform="translate(0,182.70458785358483)"><line x2="484" y2="0" style="stroke: lightgrey;"></line><text x="-3" y="0" dy=".32em" style="text-anchor: end; font-size: 12px;">0.0500%</text></g><g class="tick major" style="opacity: 1;" transform="translate(0,73.40917570716965)"><line x2="484" y2="0" style="stroke: lightgrey;"></line><text x="-3" y="0" dy=".32em" style="text-anchor: end; font-size: 12px;">0.1000%</text></g><path class="domain" d="M484,0H0V292H484" style="display: none;"></path></g><g class="line" style="stroke-width: 2px; stroke: rgb(175, 216, 248);"><path d="M0,292L7.499999999999999,292L14.999999999999998,292L22.5,292L29.999999999999996,292L37.5,292L45,292L52.49999999999999,292L59.99999999999999,292L67.5,292L75,279.42391049193253L82.5,275.1608293027571L90,275.69371445140405L97.5,275.5871374216747L104.99999999999999,281.2357199973321L112.49999999999999,283.36726059191983L119.99999999999999,283.68699168110794L127.5,283.68699168110794L135,279.63706455139135L142.5,277.07921583788607L150,275.1608293027571L157.5,270.25828593520544L165,265.5688966271125L172.5,265.78205068657127L180,265.67547365684186L187.5,263.54393306225415L195,262.5847397946897L202.49999999999997,262.79789385414847L209.99999999999997,263.9702411811717L217.49999999999997,260.7729302892902L224.99999999999997,257.14931127849104L232.49999999999997,255.87038692173843L239.99999999999997,253.2059611785038L247.5,254.91119365417396L255,250.3283813758104L262.5,247.450801573117L270,246.065300186635L277.5,242.86798929475344L285,241.16275681908328L292.5,240.3101405812482L300,236.6865215704491L307.5,239.03121622449558L315,238.8180621650368L322.5,234.98128909477893L330,224.21700909211103L337.5,223.36439285427596L345,222.4051995867115L352.5,222.19204552725273L360,222.29862255698208L367.5,216.75661701105406L375,211.21461146512604L382.5,211.74749661377297L390,211.21461146512604L397.5,219.63419681374748L404.99999999999994,217.8223873083479L412.49999999999994,209.72253304891467L419.99999999999994,203.75421938406907L427.49999999999994,203.64764235433972L434.99999999999994,204.18052750298662L442.49999999999994,204.71341265163358L449.99999999999994,201.08979364083447L457.49999999999994,200.45033146245817L464.99999999999994,197.35959760030596L472.49999999999994,187.128202746285L479.99999999999994,185.52954730034423" style="fill: none;"></path><circle class="dot" cx="0" cy="292" r="3" style="fill: white;" data-original-title="" title=""></circle><circle class="dot" cx="7.499999999999999" cy="292" r="3" style="fill: white;" data-original-title="" title=""></circle><circle class="dot" cx="14.999999999999998" cy="292" r="3" style="fill: white;" data-original-title="" title=""></circle><circle class="dot" cx="22.5" cy="292" r="3" style="fill: white;" data-original-title="" title=""></circle><circle class="dot" cx="29.999999999999996" cy="292" r="3" style="fill: white;" data-original-title="" title=""></circle><circle class="dot" cx="37.5" cy="292" r="3" style="fill: white;" data-original-title="" title=""></circle><circle class="dot" cx="45" cy="292" r="3" style="fill: white;" data-original-title="" title=""></circle><circle class="dot" cx="52.49999999999999" cy="292" r="3" style="fill: white;" data-original-title="" title=""></circle><circle class="dot" cx="59.99999999999999" cy="292" r="3" style="fill: white;" data-original-title="" title=""></circle><circle class="dot" cx="67.5" cy="292" r="3" style="fill: white;" data-original-title="" title=""></circle><circle class="dot" cx="75" cy="279.42391049193253" r="3" style="fill: white;" data-original-title="" title=""></circle><circle class="dot" cx="82.5" cy="275.1608293027571" r="3" style="fill: white;" data-original-title="" title=""></circle><circle class="dot" cx="90" cy="275.69371445140405" r="3" style="fill: white;" data-original-title="" title=""></circle><circle class="dot" cx="97.5" cy="275.5871374216747" r="3" style="fill: white;" data-original-title="" title=""></circle><circle class="dot" cx="104.99999999999999" cy="281.2357199973321" r="3" style="fill: white;" data-original-title="" title=""></circle><circle class="dot" cx="112.49999999999999" cy="283.36726059191983" r="3" style="fill: white;" data-original-title="" title=""></circle><circle class="dot" cx="119.99999999999999" cy="283.68699168110794" r="3" style="fill: white;" data-original-title="" title=""></circle><circle class="dot" cx="127.5" cy="283.68699168110794" r="3" style="fill: white;" data-original-title="" title=""></circle><circle class="dot" cx="135" cy="279.63706455139135" r="3" style="fill: white;" data-original-title="" title=""></circle><circle class="dot" cx="142.5" cy="277.07921583788607" r="3" style="fill: white;" data-original-title="" title=""></circle><circle class="dot" cx="150" cy="275.1608293027571" r="3" style="fill: white;" data-original-title="" title=""></circle><circle class="dot" cx="157.5" cy="270.25828593520544" r="3" style="fill: white;" data-original-title="" title=""></circle><circle class="dot" cx="165" cy="265.5688966271125" r="3" style="fill: white;" data-original-title="" title=""></circle><circle class="dot" cx="172.5" cy="265.78205068657127" r="3" style="fill: white;" data-original-title="" title=""></circle><circle class="dot" cx="180" cy="265.67547365684186" r="3" style="fill: white;" data-original-title="" title=""></circle><circle class="dot" cx="187.5" cy="263.54393306225415" r="3" style="fill: white;" data-original-title="" title=""></circle><circle class="dot" cx="195" cy="262.5847397946897" r="3" style="fill: white;" data-original-title="" title=""></circle><circle class="dot" cx="202.49999999999997" cy="262.79789385414847" r="3" style="fill: white;" data-original-title="" title=""></circle><circle class="dot" cx="209.99999999999997" cy="263.9702411811717" r="3" style="fill: white;" data-original-title="" title=""></circle><circle class="dot" cx="217.49999999999997" cy="260.7729302892902" r="3" style="fill: white;" data-original-title="" title=""></circle><circle class="dot" cx="224.99999999999997" cy="257.14931127849104" r="3" style="fill: white;" data-original-title="" title=""></circle><circle class="dot" cx="232.49999999999997" cy="255.87038692173843" r="3" style="fill: white;" data-original-title="" title=""></circle><circle class="dot" cx="239.99999999999997" cy="253.2059611785038" r="3" style="fill: white;" data-original-title="" title=""></circle><circle class="dot" cx="247.5" cy="254.91119365417396" r="3" style="fill: white;" data-original-title="" title=""></circle><circle class="dot" cx="255" cy="250.3283813758104" r="3" style="fill: white;" data-original-title="" title=""></circle><circle class="dot" cx="262.5" cy="247.450801573117" r="3" style="fill: white;" data-original-title="" title=""></circle><circle class="dot" cx="270" cy="246.065300186635" r="3" style="fill: white;" data-original-title="" title=""></circle><circle class="dot" cx="277.5" cy="242.86798929475344" r="3" style="fill: white;" data-original-title="" title=""></circle><circle class="dot" cx="285" cy="241.16275681908328" r="3" style="fill: white;" data-original-title="" title=""></circle><circle class="dot" cx="292.5" cy="240.3101405812482" r="3" style="fill: white;" data-original-title="" title=""></circle><circle class="dot" cx="300" cy="236.6865215704491" r="3" style="fill: white;" data-original-title="" title=""></circle><circle class="dot" cx="307.5" cy="239.03121622449558" r="3" style="fill: white;" data-original-title="" title=""></circle><circle class="dot" cx="315" cy="238.8180621650368" r="3" style="fill: white;" data-original-title="" title=""></circle><circle class="dot" cx="322.5" cy="234.98128909477893" r="3" style="fill: white;" data-original-title="" title=""></circle><circle class="dot" cx="330" cy="224.21700909211103" r="3" style="fill: white;" data-original-title="" title=""></circle><circle class="dot" cx="337.5" cy="223.36439285427596" r="3" style="fill: white;" data-original-title="" title=""></circle><circle class="dot" cx="345" cy="222.4051995867115" r="3" style="fill: white;" data-original-title="" title=""></circle><circle class="dot" cx="352.5" cy="222.19204552725273" r="3" style="fill: white;" data-original-title="" title=""></circle><circle class="dot" cx="360" cy="222.29862255698208" r="3" style="fill: white;" data-original-title="" title=""></circle><circle class="dot" cx="367.5" cy="216.75661701105406" r="3" style="fill: white;" data-original-title="" title=""></circle><circle class="dot" cx="375" cy="211.21461146512604" r="3" style="fill: white;" data-original-title="" title=""></circle><circle class="dot" cx="382.5" cy="211.74749661377297" r="3" style="fill: white;" data-original-title="" title=""></circle><circle class="dot" cx="390" cy="211.21461146512604" r="3" style="fill: white;" data-original-title="" title=""></circle><circle class="dot" cx="397.5" cy="219.63419681374748" r="3" style="fill: white;" data-original-title="" title=""></circle><circle class="dot" cx="404.99999999999994" cy="217.8223873083479" r="3" style="fill: white;" data-original-title="" title=""></circle><circle class="dot" cx="412.49999999999994" cy="209.72253304891467" r="3" style="fill: white;" data-original-title="" title=""></circle><circle class="dot" cx="419.99999999999994" cy="203.75421938406907" r="3" style="fill: white;" data-original-title="" title=""></circle><circle class="dot" cx="427.49999999999994" cy="203.64764235433972" r="3" style="fill: white;" data-original-title="" title=""></circle><circle class="dot" cx="434.99999999999994" cy="204.18052750298662" r="3" style="fill: white;" data-original-title="" title=""></circle><circle class="dot" cx="442.49999999999994" cy="204.71341265163358" r="3" style="fill: white;" data-original-title="" title=""></circle><circle class="dot" cx="449.99999999999994" cy="201.08979364083447" r="3" style="fill: white;" data-original-title="" title=""></circle><circle class="dot" cx="457.49999999999994" cy="200.45033146245817" r="3" style="fill: white;" data-original-title="" title=""></circle><circle class="dot" cx="464.99999999999994" cy="197.35959760030596" r="3" style="fill: white;" data-original-title="" title=""></circle><circle class="dot" cx="472.49999999999994" cy="187.128202746285" r="3" style="fill: white;" data-original-title="" title=""></circle><circle class="dot" cx="479.99999999999994" cy="185.52954730034423" r="3" style="fill: white;" data-original-title="" title=""></circle></g><g class="line" style="stroke-width: 2px; stroke: rgb(237, 194, 64);"><path d="M0,292L7.499999999999999,292L14.999999999999998,292L22.5,292L29.999999999999996,292L37.5,292L45,292L52.49999999999999,292L59.99999999999999,292L67.5,292L75,257.1823647294589L82.5,245.18637274549098L90,246.6492985971944L97.5,246.3567134268537L104.99999999999999,262.1563126252505L112.49999999999999,268.3006012024048L119.99999999999999,268.88577154308615L127.5,268.5931863727455L135,257.4749498997996L142.5,250.45290581162325L150,244.8937875751503L157.5,231.43486973947896L165,218.2685370741483L172.5,218.56112224448896L180,218.2685370741483L187.5,211.8316633266533L195,209.49098196392785L202.49999999999997,210.3687374749499L209.99999999999997,213.29458917835672L217.49999999999997,203.9318637274549L224.99999999999997,193.39879759519036L232.49999999999997,189.59519038076152L239.99999999999997,182.86573146292585L247.5,189.8877755511022L255,177.59919839679358L262.5,169.4068136272545L270,165.01803607214427L277.5,155.65531062124248L285,150.97394789579158L292.5,148.63326653306612L300,138.10020040080158L307.5,144.53707414829657L315,143.65931863727454L322.5,132.83366733466934L330,102.98997995991982L337.5,101.23446893787576L345,98.30861723446893L352.5,97.43086172344687L360,97.72344689378755L367.5,82.8016032064128L375,67.87975951903806L382.5,69.92785571142284L390,68.4649298597194L397.5,91.57915831663325L404.99999999999994,86.31262525050101L412.49999999999994,63.78356713426854L419.99999999999994,49.44689378757511L427.49999999999994,48.569138276553076L434.99999999999994,49.44689378757511L442.49999999999994,51.20240480961925L449.99999999999994,41.25450901803603L457.49999999999994,40.08416833667334L464.99999999999994,31.599198396793554L472.49999999999994,4.3887775551102095L479.99999999999994,0" style="fill: none;"></path><circle class="dot" cx="0" cy="292" r="3" style="fill: white;" data-original-title="" title=""></circle><circle class="dot" cx="7.499999999999999" cy="292" r="3" style="fill: white;" data-original-title="" title=""></circle><circle class="dot" cx="14.999999999999998" cy="292" r="3" style="fill: white;" data-original-title="" title=""></circle><circle class="dot" cx="22.5" cy="292" r="3" style="fill: white;" data-original-title="" title=""></circle><circle class="dot" cx="29.999999999999996" cy="292" r="3" style="fill: white;" data-original-title="" title=""></circle><circle class="dot" cx="37.5" cy="292" r="3" style="fill: white;" data-original-title="" title=""></circle><circle class="dot" cx="45" cy="292" r="3" style="fill: white;" data-original-title="" title=""></circle><circle class="dot" cx="52.49999999999999" cy="292" r="3" style="fill: white;" data-original-title="" title=""></circle><circle class="dot" cx="59.99999999999999" cy="292" r="3" style="fill: white;" data-original-title="" title=""></circle><circle class="dot" cx="67.5" cy="292" r="3" style="fill: white;" data-original-title="" title=""></circle><circle class="dot" cx="75" cy="257.1823647294589" r="3" style="fill: white;" data-original-title="" title=""></circle><circle class="dot" cx="82.5" cy="245.18637274549098" r="3" style="fill: white;" data-original-title="" title=""></circle><circle class="dot" cx="90" cy="246.6492985971944" r="3" style="fill: white;" data-original-title="" title=""></circle><circle class="dot" cx="97.5" cy="246.3567134268537" r="3" style="fill: white;" data-original-title="" title=""></circle><circle class="dot" cx="104.99999999999999" cy="262.1563126252505" r="3" style="fill: white;" data-original-title="" title=""></circle><circle class="dot" cx="112.49999999999999" cy="268.3006012024048" r="3" style="fill: white;" data-original-title="" title=""></circle><circle class="dot" cx="119.99999999999999" cy="268.88577154308615" r="3" style="fill: white;" data-original-title="" title=""></circle><circle class="dot" cx="127.5" cy="268.5931863727455" r="3" style="fill: white;" data-original-title="" title=""></circle><circle class="dot" cx="135" cy="257.4749498997996" r="3" style="fill: white;" data-original-title="" title=""></circle><circle class="dot" cx="142.5" cy="250.45290581162325" r="3" style="fill: white;" data-original-title="" title=""></circle><circle class="dot" cx="150" cy="244.8937875751503" r="3" style="fill: white;" data-original-title="" title=""></circle><circle class="dot" cx="157.5" cy="231.43486973947896" r="3" style="fill: white;" data-original-title="" title=""></circle><circle class="dot" cx="165" cy="218.2685370741483" r="3" style="fill: white;" data-original-title="" title=""></circle><circle class="dot" cx="172.5" cy="218.56112224448896" r="3" style="fill: white;" data-original-title="" title=""></circle><circle class="dot" cx="180" cy="218.2685370741483" r="3" style="fill: white;" data-original-title="" title=""></circle><circle class="dot" cx="187.5" cy="211.8316633266533" r="3" style="fill: white;" data-original-title="" title=""></circle><circle class="dot" cx="195" cy="209.49098196392785" r="3" style="fill: white;" data-original-title="" title=""></circle><circle class="dot" cx="202.49999999999997" cy="210.3687374749499" r="3" style="fill: white;" data-original-title="" title=""></circle><circle class="dot" cx="209.99999999999997" cy="213.29458917835672" r="3" style="fill: white;" data-original-title="" title=""></circle><circle class="dot" cx="217.49999999999997" cy="203.9318637274549" r="3" style="fill: white;" data-original-title="" title=""></circle><circle class="dot" cx="224.99999999999997" cy="193.39879759519036" r="3" style="fill: white;" data-original-title="" title=""></circle><circle class="dot" cx="232.49999999999997" cy="189.59519038076152" r="3" style="fill: white;" data-original-title="" title=""></circle><circle class="dot" cx="239.99999999999997" cy="182.86573146292585" r="3" style="fill: white;" data-original-title="" title=""></circle><circle class="dot" cx="247.5" cy="189.8877755511022" r="3" style="fill: white;" data-original-title="" title=""></circle><circle class="dot" cx="255" cy="177.59919839679358" r="3" style="fill: white;" data-original-title="" title=""></circle><circle class="dot" cx="262.5" cy="169.4068136272545" r="3" style="fill: white;" data-original-title="" title=""></circle><circle class="dot" cx="270" cy="165.01803607214427" r="3" style="fill: white;" data-original-title="" title=""></circle><circle class="dot" cx="277.5" cy="155.65531062124248" r="3" style="fill: white;" data-original-title="" title=""></circle><circle class="dot" cx="285" cy="150.97394789579158" r="3" style="fill: white;" data-original-title="" title=""></circle><circle class="dot" cx="292.5" cy="148.63326653306612" r="3" style="fill: white;" data-original-title="" title=""></circle><circle class="dot" cx="300" cy="138.10020040080158" r="3" style="fill: white;" data-original-title="" title=""></circle><circle class="dot" cx="307.5" cy="144.53707414829657" r="3" style="fill: white;" data-original-title="" title=""></circle><circle class="dot" cx="315" cy="143.65931863727454" r="3" style="fill: white;" data-original-title="" title=""></circle><circle class="dot" cx="322.5" cy="132.83366733466934" r="3" style="fill: white;" data-original-title="" title=""></circle><circle class="dot" cx="330" cy="102.98997995991982" r="3" style="fill: white;" data-original-title="" title=""></circle><circle class="dot" cx="337.5" cy="101.23446893787576" r="3" style="fill: white;" data-original-title="" title=""></circle><circle class="dot" cx="345" cy="98.30861723446893" r="3" style="fill: white;" data-original-title="" title=""></circle><circle class="dot" cx="352.5" cy="97.43086172344687" r="3" style="fill: white;" data-original-title="" title=""></circle><circle class="dot" cx="360" cy="97.72344689378755" r="3" style="fill: white;" data-original-title="" title=""></circle><circle class="dot" cx="367.5" cy="82.8016032064128" r="3" style="fill: white;" data-original-title="" title=""></circle><circle class="dot" cx="375" cy="67.87975951903806" r="3" style="fill: white;" data-original-title="" title=""></circle><circle class="dot" cx="382.5" cy="69.92785571142284" r="3" style="fill: white;" data-original-title="" title=""></circle><circle class="dot" cx="390" cy="68.4649298597194" r="3" style="fill: white;" data-original-title="" title=""></circle><circle class="dot" cx="397.5" cy="91.57915831663325" r="3" style="fill: white;" data-original-title="" title=""></circle><circle class="dot" cx="404.99999999999994" cy="86.31262525050101" r="3" style="fill: white;" data-original-title="" title=""></circle><circle class="dot" cx="412.49999999999994" cy="63.78356713426854" r="3" style="fill: white;" data-original-title="" title=""></circle><circle class="dot" cx="419.99999999999994" cy="49.44689378757511" r="3" style="fill: white;" data-original-title="" title=""></circle><circle class="dot" cx="427.49999999999994" cy="48.569138276553076" r="3" style="fill: white;" data-original-title="" title=""></circle><circle class="dot" cx="434.99999999999994" cy="49.44689378757511" r="3" style="fill: white;" data-original-title="" title=""></circle><circle class="dot" cx="442.49999999999994" cy="51.20240480961925" r="3" style="fill: white;" data-original-title="" title=""></circle><circle class="dot" cx="449.99999999999994" cy="41.25450901803603" r="3" style="fill: white;" data-original-title="" title=""></circle><circle class="dot" cx="457.49999999999994" cy="40.08416833667334" r="3" style="fill: white;" data-original-title="" title=""></circle><circle class="dot" cx="464.99999999999994" cy="31.599198396793554" r="3" style="fill: white;" data-original-title="" title=""></circle><circle class="dot" cx="472.49999999999994" cy="4.3887775551102095" r="3" style="fill: white;" data-original-title="" title=""></circle><circle class="dot" cx="479.99999999999994" cy="0" r="3" style="fill: white;" data-original-title="" title=""></circle></g><g class="line" style="stroke-width: 2px; stroke: rgb(203, 75, 75);"><path d="M0,292L7.499999999999999,292L14.999999999999998,292L22.5,292L29.999999999999996,292L37.5,292L45,292L52.49999999999999,292L59.99999999999999,292L67.5,292L75,292L82.5,292L90,292L97.5,292L104.99999999999999,292L112.49999999999999,292L119.99999999999999,292L127.5,292L135,292L142.5,292L150,292L157.5,292L165,292L172.5,292L180,292L187.5,292L195,292L202.49999999999997,292L209.99999999999997,292L217.49999999999997,292L224.99999999999997,292L232.49999999999997,292L239.99999999999997,292L247.5,292L255,292L262.5,292L270,292L277.5,292L285,292L292.5,292L300,292L307.5,292L315,292L322.5,292L330,292L337.5,292L345,292L352.5,292L360,292L367.5,292L375,292L382.5,292L390,292L397.5,292L404.99999999999994,292L412.49999999999994,292L419.99999999999994,292L427.49999999999994,292L434.99999999999994,292L442.49999999999994,292L449.99999999999994,292L457.49999999999994,292L464.99999999999994,292L472.49999999999994,292L479.99999999999994,292" style="fill: none;"></path><circle class="dot" cx="0" cy="292" r="3" style="fill: white;" data-original-title="" title=""></circle><circle class="dot" cx="7.499999999999999" cy="292" r="3" style="fill: white;" data-original-title="" title=""></circle><circle class="dot" cx="14.999999999999998" cy="292" r="3" style="fill: white;" data-original-title="" title=""></circle><circle class="dot" cx="22.5" cy="292" r="3" style="fill: white;" data-original-title="" title=""></circle><circle class="dot" cx="29.999999999999996" cy="292" r="3" style="fill: white;" data-original-title="" title=""></circle><circle class="dot" cx="37.5" cy="292" r="3" style="fill: white;" data-original-title="" title=""></circle><circle class="dot" cx="45" cy="292" r="3" style="fill: white;" data-original-title="" title=""></circle><circle class="dot" cx="52.49999999999999" cy="292" r="3" style="fill: white;" data-original-title="" title=""></circle><circle class="dot" cx="59.99999999999999" cy="292" r="3" style="fill: white;" data-original-title="" title=""></circle><circle class="dot" cx="67.5" cy="292" r="3" style="fill: white;" data-original-title="" title=""></circle><circle class="dot" cx="75" cy="292" r="3" style="fill: white;" data-original-title="" title=""></circle><circle class="dot" cx="82.5" cy="292" r="3" style="fill: white;" data-original-title="" title=""></circle><circle class="dot" cx="90" cy="292" r="3" style="fill: white;" data-original-title="" title=""></circle><circle class="dot" cx="97.5" cy="292" r="3" style="fill: white;" data-original-title="" title=""></circle><circle class="dot" cx="104.99999999999999" cy="292" r="3" style="fill: white;" data-original-title="" title=""></circle><circle class="dot" cx="112.49999999999999" cy="292" r="3" style="fill: white;" data-original-title="" title=""></circle><circle class="dot" cx="119.99999999999999" cy="292" r="3" style="fill: white;" data-original-title="" title=""></circle><circle class="dot" cx="127.5" cy="292" r="3" style="fill: white;" data-original-title="" title=""></circle><circle class="dot" cx="135" cy="292" r="3" style="fill: white;" data-original-title="" title=""></circle><circle class="dot" cx="142.5" cy="292" r="3" style="fill: white;" data-original-title="" title=""></circle><circle class="dot" cx="150" cy="292" r="3" style="fill: white;" data-original-title="" title=""></circle><circle class="dot" cx="157.5" cy="292" r="3" style="fill: white;" data-original-title="" title=""></circle><circle class="dot" cx="165" cy="292" r="3" style="fill: white;" data-original-title="" title=""></circle><circle class="dot" cx="172.5" cy="292" r="3" style="fill: white;" data-original-title="" title=""></circle><circle class="dot" cx="180" cy="292" r="3" style="fill: white;" data-original-title="" title=""></circle><circle class="dot" cx="187.5" cy="292" r="3" style="fill: white;" data-original-title="" title=""></circle><circle class="dot" cx="195" cy="292" r="3" style="fill: white;" data-original-title="" title=""></circle><circle class="dot" cx="202.49999999999997" cy="292" r="3" style="fill: white;" data-original-title="" title=""></circle><circle class="dot" cx="209.99999999999997" cy="292" r="3" style="fill: white;" data-original-title="" title=""></circle><circle class="dot" cx="217.49999999999997" cy="292" r="3" style="fill: white;" data-original-title="" title=""></circle><circle class="dot" cx="224.99999999999997" cy="292" r="3" style="fill: white;" data-original-title="" title=""></circle><circle class="dot" cx="232.49999999999997" cy="292" r="3" style="fill: white;" data-original-title="" title=""></circle><circle class="dot" cx="239.99999999999997" cy="292" r="3" style="fill: white;" data-original-title="" title=""></circle><circle class="dot" cx="247.5" cy="292" r="3" style="fill: white;" data-original-title="" title=""></circle><circle class="dot" cx="255" cy="292" r="3" style="fill: white;" data-original-title="" title=""></circle><circle class="dot" cx="262.5" cy="292" r="3" style="fill: white;" data-original-title="" title=""></circle><circle class="dot" cx="270" cy="292" r="3" style="fill: white;" data-original-title="" title=""></circle><circle class="dot" cx="277.5" cy="292" r="3" style="fill: white;" data-original-title="" title=""></circle><circle class="dot" cx="285" cy="292" r="3" style="fill: white;" data-original-title="" title=""></circle><circle class="dot" cx="292.5" cy="292" r="3" style="fill: white;" data-original-title="" title=""></circle><circle class="dot" cx="300" cy="292" r="3" style="fill: white;" data-original-title="" title=""></circle><circle class="dot" cx="307.5" cy="292" r="3" style="fill: white;" data-original-title="" title=""></circle><circle class="dot" cx="315" cy="292" r="3" style="fill: white;" data-original-title="" title=""></circle><circle class="dot" cx="322.5" cy="292" r="3" style="fill: white;" data-original-title="" title=""></circle><circle class="dot" cx="330" cy="292" r="3" style="fill: white;" data-original-title="" title=""></circle><circle class="dot" cx="337.5" cy="292" r="3" style="fill: white;" data-original-title="" title=""></circle><circle class="dot" cx="345" cy="292" r="3" style="fill: white;" data-original-title="" title=""></circle><circle class="dot" cx="352.5" cy="292" r="3" style="fill: white;" data-original-title="" title=""></circle><circle class="dot" cx="360" cy="292" r="3" style="fill: white;" data-original-title="" title=""></circle><circle class="dot" cx="367.5" cy="292" r="3" style="fill: white;" data-original-title="" title=""></circle><circle class="dot" cx="375" cy="292" r="3" style="fill: white;" data-original-title="" title=""></circle><circle class="dot" cx="382.5" cy="292" r="3" style="fill: white;" data-original-title="" title=""></circle><circle class="dot" cx="390" cy="292" r="3" style="fill: white;" data-original-title="" title=""></circle><circle class="dot" cx="397.5" cy="292" r="3" style="fill: white;" data-original-title="" title=""></circle><circle class="dot" cx="404.99999999999994" cy="292" r="3" style="fill: white;" data-original-title="" title=""></circle><circle class="dot" cx="412.49999999999994" cy="292" r="3" style="fill: white;" data-original-title="" title=""></circle><circle class="dot" cx="419.99999999999994" cy="292" r="3" style="fill: white;" data-original-title="" title=""></circle><circle class="dot" cx="427.49999999999994" cy="292" r="3" style="fill: white;" data-original-title="" title=""></circle><circle class="dot" cx="434.99999999999994" cy="292" r="3" style="fill: white;" data-original-title="" title=""></circle><circle class="dot" cx="442.49999999999994" cy="292" r="3" style="fill: white;" data-original-title="" title=""></circle><circle class="dot" cx="449.99999999999994" cy="292" r="3" style="fill: white;" data-original-title="" title=""></circle><circle class="dot" cx="457.49999999999994" cy="292" r="3" style="fill: white;" data-original-title="" title=""></circle><circle class="dot" cx="464.99999999999994" cy="292" r="3" style="fill: white;" data-original-title="" title=""></circle><circle class="dot" cx="472.49999999999994" cy="292" r="3" style="fill: white;" data-original-title="" title=""></circle><circle class="dot" cx="479.99999999999994" cy="292" r="3" style="fill: white;" data-original-title="" title=""></circle></g><g class="line" style="stroke-width: 2px; stroke: rgb(77, 167, 77);"><path d="M0,292L7.499999999999999,292L14.999999999999998,292L22.5,292L29.999999999999996,292L37.5,292L45,292L52.49999999999999,292L59.99999999999999,292L67.5,292L75,292L82.5,292L90,292L97.5,292L104.99999999999999,292L112.49999999999999,292L119.99999999999999,292L127.5,292L135,292L142.5,292L150,292L157.5,292L165,292L172.5,292L180,292L187.5,292L195,292L202.49999999999997,292L209.99999999999997,292L217.49999999999997,292L224.99999999999997,292L232.49999999999997,292L239.99999999999997,292L247.5,292L255,292L262.5,292L270,292L277.5,292L285,292L292.5,292L300,292L307.5,292L315,292L322.5,292L330,292L337.5,292L345,292L352.5,292L360,292L367.5,292L375,292L382.5,292L390,292L397.5,292L404.99999999999994,292L412.49999999999994,292L419.99999999999994,292L427.49999999999994,292L434.99999999999994,292L442.49999999999994,292L449.99999999999994,292L457.49999999999994,292L464.99999999999994,292L472.49999999999994,292L479.99999999999994,292" style="fill: none;"></path><circle class="dot" cx="0" cy="292" r="3" style="fill: white;" data-original-title="" title=""></circle><circle class="dot" cx="7.499999999999999" cy="292" r="3" style="fill: white;" data-original-title="" title=""></circle><circle class="dot" cx="14.999999999999998" cy="292" r="3" style="fill: white;" data-original-title="" title=""></circle><circle class="dot" cx="22.5" cy="292" r="3" style="fill: white;" data-original-title="" title=""></circle><circle class="dot" cx="29.999999999999996" cy="292" r="3" style="fill: white;" data-original-title="" title=""></circle><circle class="dot" cx="37.5" cy="292" r="3" style="fill: white;" data-original-title="" title=""></circle><circle class="dot" cx="45" cy="292" r="3" style="fill: white;" data-original-title="" title=""></circle><circle class="dot" cx="52.49999999999999" cy="292" r="3" style="fill: white;" data-original-title="" title=""></circle><circle class="dot" cx="59.99999999999999" cy="292" r="3" style="fill: white;" data-original-title="" title=""></circle><circle class="dot" cx="67.5" cy="292" r="3" style="fill: white;" data-original-title="" title=""></circle><circle class="dot" cx="75" cy="292" r="3" style="fill: white;" data-original-title="" title=""></circle><circle class="dot" cx="82.5" cy="292" r="3" style="fill: white;" data-original-title="" title=""></circle><circle class="dot" cx="90" cy="292" r="3" style="fill: white;" data-original-title="" title=""></circle><circle class="dot" cx="97.5" cy="292" r="3" style="fill: white;" data-original-title="" title=""></circle><circle class="dot" cx="104.99999999999999" cy="292" r="3" style="fill: white;" data-original-title="" title=""></circle><circle class="dot" cx="112.49999999999999" cy="292" r="3" style="fill: white;" data-original-title="" title=""></circle><circle class="dot" cx="119.99999999999999" cy="292" r="3" style="fill: white;" data-original-title="" title=""></circle><circle class="dot" cx="127.5" cy="292" r="3" style="fill: white;" data-original-title="" title=""></circle><circle class="dot" cx="135" cy="292" r="3" style="fill: white;" data-original-title="" title=""></circle><circle class="dot" cx="142.5" cy="292" r="3" style="fill: white;" data-original-title="" title=""></circle><circle class="dot" cx="150" cy="292" r="3" style="fill: white;" data-original-title="" title=""></circle><circle class="dot" cx="157.5" cy="292" r="3" style="fill: white;" data-original-title="" title=""></circle><circle class="dot" cx="165" cy="292" r="3" style="fill: white;" data-original-title="" title=""></circle><circle class="dot" cx="172.5" cy="292" r="3" style="fill: white;" data-original-title="" title=""></circle><circle class="dot" cx="180" cy="292" r="3" style="fill: white;" data-original-title="" title=""></circle><circle class="dot" cx="187.5" cy="292" r="3" style="fill: white;" data-original-title="" title=""></circle><circle class="dot" cx="195" cy="292" r="3" style="fill: white;" data-original-title="" title=""></circle><circle class="dot" cx="202.49999999999997" cy="292" r="3" style="fill: white;" data-original-title="" title=""></circle><circle class="dot" cx="209.99999999999997" cy="292" r="3" style="fill: white;" data-original-title="" title=""></circle><circle class="dot" cx="217.49999999999997" cy="292" r="3" style="fill: white;" data-original-title="" title=""></circle><circle class="dot" cx="224.99999999999997" cy="292" r="3" style="fill: white;" data-original-title="" title=""></circle><circle class="dot" cx="232.49999999999997" cy="292" r="3" style="fill: white;" data-original-title="" title=""></circle><circle class="dot" cx="239.99999999999997" cy="292" r="3" style="fill: white;" data-original-title="" title=""></circle><circle class="dot" cx="247.5" cy="292" r="3" style="fill: white;" data-original-title="" title=""></circle><circle class="dot" cx="255" cy="292" r="3" style="fill: white;" data-original-title="" title=""></circle><circle class="dot" cx="262.5" cy="292" r="3" style="fill: white;" data-original-title="" title=""></circle><circle class="dot" cx="270" cy="292" r="3" style="fill: white;" data-original-title="" title=""></circle><circle class="dot" cx="277.5" cy="292" r="3" style="fill: white;" data-original-title="" title=""></circle><circle class="dot" cx="285" cy="292" r="3" style="fill: white;" data-original-title="" title=""></circle><circle class="dot" cx="292.5" cy="292" r="3" style="fill: white;" data-original-title="" title=""></circle><circle class="dot" cx="300" cy="292" r="3" style="fill: white;" data-original-title="" title=""></circle><circle class="dot" cx="307.5" cy="292" r="3" style="fill: white;" data-original-title="" title=""></circle><circle class="dot" cx="315" cy="292" r="3" style="fill: white;" data-original-title="" title=""></circle><circle class="dot" cx="322.5" cy="292" r="3" style="fill: white;" data-original-title="" title=""></circle><circle class="dot" cx="330" cy="292" r="3" style="fill: white;" data-original-title="" title=""></circle><circle class="dot" cx="337.5" cy="292" r="3" style="fill: white;" data-original-title="" title=""></circle><circle class="dot" cx="345" cy="292" r="3" style="fill: white;" data-original-title="" title=""></circle><circle class="dot" cx="352.5" cy="292" r="3" style="fill: white;" data-original-title="" title=""></circle><circle class="dot" cx="360" cy="292" r="3" style="fill: white;" data-original-title="" title=""></circle><circle class="dot" cx="367.5" cy="292" r="3" style="fill: white;" data-original-title="" title=""></circle><circle class="dot" cx="375" cy="292" r="3" style="fill: white;" data-original-title="" title=""></circle><circle class="dot" cx="382.5" cy="292" r="3" style="fill: white;" data-original-title="" title=""></circle><circle class="dot" cx="390" cy="292" r="3" style="fill: white;" data-original-title="" title=""></circle><circle class="dot" cx="397.5" cy="292" r="3" style="fill: white;" data-original-title="" title=""></circle><circle class="dot" cx="404.99999999999994" cy="292" r="3" style="fill: white;" data-original-title="" title=""></circle><circle class="dot" cx="412.49999999999994" cy="292" r="3" style="fill: white;" data-original-title="" title=""></circle><circle class="dot" cx="419.99999999999994" cy="292" r="3" style="fill: white;" data-original-title="" title=""></circle><circle class="dot" cx="427.49999999999994" cy="292" r="3" style="fill: white;" data-original-title="" title=""></circle><circle class="dot" cx="434.99999999999994" cy="292" r="3" style="fill: white;" data-original-title="" title=""></circle><circle class="dot" cx="442.49999999999994" cy="292" r="3" style="fill: white;" data-original-title="" title=""></circle><circle class="dot" cx="449.99999999999994" cy="292" r="3" style="fill: white;" data-original-title="" title=""></circle><circle class="dot" cx="457.49999999999994" cy="292" r="3" style="fill: white;" data-original-title="" title=""></circle><circle class="dot" cx="464.99999999999994" cy="292" r="3" style="fill: white;" data-original-title="" title=""></circle><circle class="dot" cx="472.49999999999994" cy="292" r="3" style="fill: white;" data-original-title="" title=""></circle><circle class="dot" cx="479.99999999999994" cy="292" r="3" style="fill: white;" data-original-title="" title=""></circle></g><g class="legend"><g><circle cx="-27" cy="-20" r="3" style="stroke-width: 2px; stroke: rgb(175, 216, 248); fill: white;"></circle><text x="-17" y="-16" style="fill: rgb(175, 216, 248); font-size: 12px;">consensus weight fraction</text></g><g><circle cx="254" cy="-20" r="3" style="stroke-width: 2px; stroke: rgb(237, 194, 64); fill: white;"></circle><text x="264" y="-16" style="fill: rgb(237, 194, 64); font-size: 12px;">middle probability</text></g><g><circle cx="139" cy="-20" r="3" style="stroke-width: 2px; stroke: rgb(203, 75, 75); fill: white;"></circle><text x="149" y="-16" style="fill: rgb(203, 75, 75); font-size: 12px;">guard probability</text></g><g><circle cx="374" cy="-20" r="3" style="stroke-width: 2px; stroke: rgb(77, 167, 77); fill: white;"></circle><text x="384" y="-16" style="fill: rgb(77, 167, 77); font-size: 12px;">exit probability</text></g></g></g></svg>